<svg id="Layer_1" enable-background="new 0 0 512.047 512.047" height="512" viewBox="0 0 512.047 512.047" width="512" xmlns="http://www.w3.org/2000/svg"><g><path d="m387.51 216.22-29.243-50.328-18.315-165.892h-167.989l-18.187 165.897-29.239 50.322c-5.74 9.878-8.774 21.139-8.774 32.563v3.506c0 33.808 27.504 61.312 61.311 61.312 9.113 0 17.572 4.527 22.627 12.109 10.631 15.947 28.421 25.469 47.588 25.469h17.467c19.167 0 36.957-9.521 47.588-25.468 5.056-7.583 13.515-12.11 22.627-12.11 33.808 0 61.312-27.504 61.312-61.312v-3.506c0-11.424-3.034-22.684-8.773-32.562z" fill="#ffd4c4"/><path d="m345.719 398.877-10.364-9.905-10.363 9.905c-.378.36-9.351 8.968-18.388 20.378-13.615 17.191-20.233 31.521-20.233 43.808 0 27.01 21.975 48.984 48.984 48.984s48.983-21.975 48.983-48.984c0-25.961-32.171-58.023-38.619-64.186z" fill="#9ee2f8"/><path d="m187.057 362.233-10.364-9.905-10.364 9.905c-.377.36-9.351 8.968-18.387 20.379-13.615 17.191-20.233 31.521-20.233 43.808 0 27.01 21.974 48.983 48.984 48.983s48.983-21.974 48.983-48.983c0-25.961-32.17-58.024-38.619-64.187z" fill="#9ee2f8"/><path d="m345.719 398.877-10.364-9.905-10.363 9.905c-.378.36-9.351 8.968-18.388 20.378-13.615 17.191-20.233 31.521-20.233 43.808 0 27.01 21.975 48.984 48.984 48.984s48.983-21.975 48.983-48.984c0-25.961-32.171-58.023-38.619-64.186z" fill="#5ecef4"/><path d="m387.51 216.22-29.243-50.328-18.315-165.892h-82.798v351.179h7.602c19.167 0 36.957-9.521 47.588-25.468 5.056-7.583 13.515-12.11 22.627-12.11 33.808 0 61.312-27.504 61.312-61.312v-3.506c0-11.425-3.034-22.685-8.773-32.563z" fill="#ffbea4"/></g></svg>