<svg height="512" viewBox="0 0 58 52" width="512" xmlns="http://www.w3.org/2000/svg"><g id="Page-1" fill="none" fill-rule="evenodd"><g id="034---Dirty-Toilet-Paper" fill-rule="nonzero"><path id="Shape" d="m44 0h-30c-7.73 0-14 7.61-14 17s6.27 17 14 17h14v17c0 .5522847.4477153 1 1 1h28c.5522847 0 1-.4477153 1-1v-34c0-9.39-6.27-17-14-17z" fill="#f9eab0"/><path id="Shape" d="m14 0c-7.73 0-14 7.61-14 17s6.27 17 14 17 14-7.61 14-17-6.27-17-14-17zm0 24c-2.71 0-5-3.21-5-7s2.29-7 5-7 5 3.21 5 7-2.29 7-5 7z" fill="#f5efca"/><ellipse id="Oval" cx="14" cy="17" fill="#a56a43" rx="5" ry="7"/><path id="Shape" d="m28 17v17h-14c7.73 0 14-7.61 14-17z" fill="#e4c05c"/><path id="Shape" d="m54 49h-4c-.5522847 0-1-.4477153-1-1s.4477153-1 1-1h3v-3c0-.5522847.4477153-1 1-1s1 .4477153 1 1v4c0 .5522847-.4477153 1-1 1z" fill="#e4c05c"/><g fill="#f29c1f"><path id="Shape" d="m38 31h-2c-.5522847 0-1-.4477153-1-1s.4477153-1 1-1h2c.5522847 0 1 .4477153 1 1s-.4477153 1-1 1z"/><path id="Shape" d="m33 30c0 .5522847-.4477153 1-1 1h-4v-2h4c.5522847 0 1 .4477153 1 1z"/><path id="Shape" d="m44 31h-2c-.5522847 0-1-.4477153-1-1s.4477153-1 1-1h2c.5522847 0 1 .4477153 1 1s-.4477153 1-1 1z"/><path id="Shape" d="m50 31h-2c-.5522847 0-1-.4477153-1-1s.4477153-1 1-1h2c.5522847 0 1 .4477153 1 1s-.4477153 1-1 1z"/><path id="Shape" d="m58 29v2h-4c-.5522847 0-1-.4477153-1-1s.4477153-1 1-1z"/></g><circle id="Oval" cx="45.5" cy="6.5" fill="#24ae5f" r="2.5"/><path id="Shape" d="m38 22.5c0-1.3807119 1.1192881-2.5 2.5-2.5 1.7407482-.033636 3.2204268-1.2810201 3.548-2.991.3085075-1.3125861 1.602335-2.1440414 2.9244532-1.879348 1.3221183.2646935 2.1961335 1.5301598 1.9755468 2.860348-.7843786 4.0520598-4.3207871 6.9865086-8.448 7.01-1.3807119 0-2.5-1.1192881-2.5-2.5z" fill="#4c8056"/><path id="Shape" d="m36 17c-.5522847 0-1-.4477153-1-1v-10c0-.55228475.4477153-1 1-1s1 .44771525 1 1v10c0 .5522847-.4477153 1-1 1z" fill="#ff5364"/><path id="Shape" d="m32.464 15.536c-.4043959-.0000863-.7689341-.2437275-.923678-.6173454-.1547439-.373618-.0692299-.8036603.216678-1.0896546l7.072-7.072c.2510745-.25995658.6228779-.3642126.9725073-.27269716.3496295.09151544.6226744.3645604.7141899.71418984.0915154.34962943-.0127406.72143285-.2726972.97250732l-7.072 7.072c-.1874927.1875494-.4418052.2929434-.707.293z" fill="#ff5364"/><path id="Shape" d="m39.536 15.536c-.2651948-.0000566-.5195073-.1054506-.707-.293l-7.072-7.072c-.2599566-.25107447-.3642126-.62287789-.2726972-.97250732.0915155-.34962944.3645604-.6226744.7141899-.71418984.3496294-.09151544.7214328.01274058.9725073.27269716l7.072 7.072c.2859079.2859943.3714219.7160366.216678 1.0896546-.1547439.3736179-.5192821.6172591-.923678.6173454z" fill="#ff5364"/><path id="Shape" d="m41 12h-10c-.5522847 0-1-.4477153-1-1s.4477153-1 1-1h10c.5522847 0 1 .4477153 1 1s-.4477153 1-1 1z" fill="#ff5364"/><circle id="Oval" cx="36" cy="11" fill="#24ae5f" r="3"/></g></g></svg>