<?xml version="1.0" encoding="iso-8859-1"?>
<!-- Generator: Adobe Illustrator 19.0.0, SVG Export Plug-In . SVG Version: 6.00 Build 0)  -->
<svg xmlns="http://www.w3.org/2000/svg" xmlns:xlink="http://www.w3.org/1999/xlink" version="1.1" id="Layer_1" x="0px" y="0px" viewBox="0 0 490.52 490.52" style="enable-background:new 0 0 490.52 490.52;" xml:space="preserve" width="512" height="512">
<g>
	<path style="fill:#FFD0A6;" d="M462.085,300.759c0,27.027-20.814,49.175-47.279,51.292c-1.38,0.117-2.784,0.176-4.188,0.176   c-3.604,0-7.114-0.363-10.506-1.076h-310c-3.393,0.714-6.903,1.076-10.507,1.076H79.57c-28.419-0.023-51.433-23.049-51.433-51.468   c0-26.793,20.475-48.8,46.636-51.222c1.591-0.164,3.206-0.234,4.832-0.234c2.165,0,4.282,0.129,6.376,0.386h318.26   c2.094-0.257,4.212-0.386,6.377-0.386c3.053,0,6.049,0.269,8.95,0.784C443.728,254.311,462.085,275.394,462.085,300.759z"/>
	<path style="fill:#E8B182;" d="M419.568,250.087v65.192c0,12.659-1.65,24.979-4.762,36.773c-1.38,0.117-2.784,0.176-4.188,0.176   c-3.604,0-7.114-0.363-10.506-1.076h-310c-3.393,0.714-6.903,1.076-10.507,1.076H79.57c-3.135-11.852-4.797-24.219-4.797-36.948   v-65.741c1.591-0.164,3.206-0.234,4.832-0.234c2.165,0,4.282,0.129,6.376,0.386h318.26c2.094-0.257,4.212-0.386,6.377-0.386   C413.671,249.303,416.666,249.573,419.568,250.087z"/>
	<path style="fill:#D6996B;" d="M434.025,309.81c-2.896,0-5.654-1.687-6.882-4.512c-4.97-11.431-19.28-7.905-20.895-7.464   c-3.982,1.085-8.111-1.247-9.216-5.222c-1.105-3.976,1.188-8.092,5.158-9.218c9.786-2.778,30.471-3.025,38.709,15.924   c1.652,3.798-0.089,8.217-3.888,9.868C436.038,309.609,435.023,309.81,434.025,309.81z"/>
	<path style="fill:#D6996B;" d="M60.322,309.81c-0.998,0-2.013-0.2-2.986-0.624c-3.799-1.651-5.54-6.07-3.888-9.868   c8.239-18.949,28.922-18.703,38.709-15.924c3.985,1.131,6.298,5.278,5.167,9.263c-1.128,3.975-5.259,6.286-9.231,5.176   c-1.648-0.448-15.926-3.949-20.889,7.466C65.975,308.123,63.217,309.809,60.322,309.81z"/>
	<path style="fill:#E8B182;" d="M404.238,226.5v106.96c0,76.54-54.755,140.293-127.236,154.228   c-9.652,1.86-19.632,2.831-29.835,2.831c-86.743,0-157.059-70.316-157.059-157.059V226.5c0-86.743,70.316-157.071,157.059-157.071   c10.202,0,20.182,0.971,29.835,2.832c31.414,6.037,59.494,21.434,81.232,43.172C386.653,143.864,404.238,183.129,404.238,226.5z"/>
	<path style="fill:#FFD0A6;" d="M404.238,226.5v106.96c0,76.54-54.755,140.293-127.236,154.228   c-72.481-13.935-127.236-77.687-127.236-154.228V226.5c0-76.54,54.755-140.305,127.236-154.239   c31.414,6.037,59.494,21.434,81.232,43.172C386.653,143.864,404.238,183.129,404.238,226.5z"/>
	<path style="fill:#D11C1C;" d="M290.408,403.138c-1.919,0-3.839-0.732-5.303-2.197c-20.916-20.916-54.948-20.917-75.865,0   c-2.929,2.929-7.678,2.929-10.606,0c-2.929-2.929-2.929-7.678,0-10.606c26.764-26.764,70.313-26.765,97.078,0   c2.929,2.929,2.929,7.678,0,10.606C294.246,402.405,292.327,403.138,290.408,403.138z"/>
	<path style="fill:#5B5B68;" d="M404.24,226.5v23.189c-185.946-0.234-247.756-76.283-247.756-76.283   c0,31.59-31.59,64.923-66.373,76.283V226.5c0-86.743,70.316-157.071,157.059-157.071c10.202,0,20.182,0.971,29.835,2.832   c31.414,6.037,59.494,21.434,81.232,43.172C386.655,143.864,404.24,183.129,404.24,226.5z"/>
	<path style="fill:#40404C;" d="M276.998,72.261c-55.539,10.682-100.666,50.614-118.742,103.134   c-1.205-1.275-1.778-1.989-1.778-1.989c0,31.59-31.59,64.923-66.373,76.283V226.5c0-86.743,70.316-157.071,157.059-157.071   C257.366,69.43,267.346,70.401,276.998,72.261z"/>
	<path style="fill:#D6996B;" d="M165.83,337.526c-3.206,0-6.174-2.072-7.166-5.296c-1.218-3.959,1.004-8.156,4.963-9.374   l27.736-8.534l-17.874-17.874c-2.929-2.929-2.929-7.678,0-10.606c2.929-2.929,7.678-2.929,10.606,0l26.682,26.682   c1.86,1.86,2.61,4.558,1.976,7.111c-0.634,2.553-2.559,4.587-5.073,5.361l-39.642,12.198   C167.304,337.418,166.561,337.526,165.83,337.526z"/>
	<path style="fill:#D6996B;" d="M327.452,337.526c-0.73,0-1.473-0.107-2.208-0.333l-39.642-12.198   c-2.514-0.774-4.439-2.808-5.073-5.361c-0.634-2.553,0.116-5.251,1.976-7.111l26.682-26.682c2.929-2.929,7.678-2.93,10.606,0   c2.929,2.929,2.929,7.678,0,10.606l-17.874,17.874l27.735,8.534c3.959,1.218,6.181,5.415,4.963,9.374   C333.626,335.453,330.658,337.526,327.452,337.526z"/>
	<path style="fill:#F95C5C;" d="M360.025,8.713l-54.391,111.73c-3.534,7.261,1.753,15.715,9.828,15.715h34.858l-25.739,68.308   c-3.861,10.247,8.277,19.034,16.806,12.166l116.79-94.052c8.249-6.643,3.552-19.965-7.039-19.965h-38.305l45.508-80.238   c5.549-9.783-1.518-21.916-12.765-21.916H373.22C367.605,0.461,362.483,3.665,360.025,8.713z"/>
	<path style="fill:#F95C5C;" d="M69.785,151.513c-2.424,0-4.802-1.173-6.247-3.341l-30.494-45.741   c-1.366-2.049-1.639-4.639-0.73-6.928c0.909-2.289,2.884-3.986,5.284-4.54l29.004-6.693L30.516,30.807   c-2.317-3.433-1.413-8.095,2.021-10.412c3.432-2.319,8.095-1.413,10.412,2.021l42.194,62.512c1.382,2.048,1.667,4.645,0.762,6.944   s-2.885,4.004-5.292,4.56l-29.069,6.708l24.475,36.712c2.298,3.446,1.367,8.103-2.08,10.4   C72.66,151.105,71.214,151.513,69.785,151.513z"/>
	<path style="fill:#F95C5C;" d="M130.353,89.902c-2.906,0-5.672-1.699-6.893-4.539l-16.382-38.084   c-0.973-2.262-0.773-4.859,0.534-6.946c1.308-2.087,3.557-3.399,6.018-3.51l19.744-0.89l-11.111-25.428   c-1.659-3.795,0.074-8.217,3.87-9.875c3.793-1.66,8.216,0.074,9.875,3.87l15.482,35.432c0.989,2.264,0.8,4.87-0.506,6.967   c-1.306,2.097-3.561,3.417-6.029,3.528l-19.811,0.893l12.095,28.117c1.637,3.805-0.121,8.217-3.926,9.854   C132.347,89.705,131.342,89.902,130.353,89.902z"/>
</g>















</svg>
