<svg id="Capa_1" enable-background="new 0 0 512 512" height="512" viewBox="0 0 512 512" width="512" xmlns="http://www.w3.org/2000/svg"><g id="XMLID_2635_"><g id="XMLID_1974_"><path id="XMLID_3261_" d="m90 50c0-22.091-17.909-40-40-40-22.091 0-40 17.909-40 40z" fill="#ffd88e"/><path id="XMLID_3260_" d="m462.031 48.5v413.436h-292.098l.098.128v-.064c0 22.091-17.908 40-40 40-22.091 0-40-17.909-40-40v-8.128-104.372-339.5h333.5c21.263 0 38.5 17.237 38.5 38.5z" fill="#fff"/><path id="XMLID_3257_" d="m130 502h332c22.091 0 40-17.909 40-40h-332c0 22.091-17.908 40-40 40z" fill="#ffd88e"/></g><g id="XMLID_3331_" fill="#a0c8ff"><path id="XMLID_3028_" d="m155.359 190h48v48h-48z"/><path id="XMLID_3027_" d="m155.359 278h48v48h-48z"/><path id="XMLID_3026_" d="m155.359 366h48v48h-48z"/></g><path id="XMLID_57_" d="m324.031 78h-28v-28h-40v28h-28v40h28v28h40v-28h28z" fill="#ff5c7d"/><g id="XMLID_103_"><path id="XMLID_1026_" d="m502 452h-29.938v-402c0-27.57-22.43-50-50-50h-372.062c-27.57 0-50 22.43-50 50 0 5.523 4.477 10 10 10h70v151.127c0 5.523 4.477 10 10 10s10-4.477 10-10v-161.127c0-11.247-3.735-21.638-10.027-30h332.09c16.542 0 30 13.458 30 30v402h-282.063c-5.523 0-10 4.478-10 10 0 16.542-13.458 30-30 30s-30-13.458-30-30v-160.873c0-5.523-4.477-10-10-10s-10 4.477-10 10v160.873c0 27.57 22.43 50 50 50 .07 0 .138-.005.208-.005 0 .002 0 .003.001.005h331.791c27.57 0 50-22.43 50-50 0-5.522-4.477-10-10-10zm-423.713-412h-56.574c4.128-11.641 15.249-20 28.287-20s24.159 8.359 28.287 20zm383.713 452h-292.027c4.377-5.817 7.516-12.614 9.021-20h311.286c-4.128 11.639-15.244 20-28.28 20z"/><path id="XMLID_1073_" d="m90 266.13c2.63 0 5.21-1.07 7.07-2.93s2.93-4.44 2.93-7.07-1.07-5.21-2.93-7.07c-1.86-1.87-4.44-2.93-7.07-2.93s-5.21 1.06-7.07 2.93c-1.86 1.86-2.93 4.44-2.93 7.07s1.07 5.21 2.93 7.07 4.44 2.93 7.07 2.93z"/><path id="XMLID_1074_" d="m388.333 204h-132.333c-5.523 0-10 4.477-10 10s4.477 10 10 10h132.333c5.523 0 10-4.477 10-10s-4.477-10-10-10z"/><path id="XMLID_1075_" d="m388.333 292h-132.333c-5.523 0-10 4.478-10 10s4.477 10 10 10h132.333c5.523 0 10-4.478 10-10s-4.477-10-10-10z"/><path id="XMLID_1078_" d="m155.359 248h48c5.523 0 10-4.477 10-10v-48c0-5.523-4.477-10-10-10h-48c-5.523 0-10 4.477-10 10v48c0 5.523 4.477 10 10 10zm10-48h28v28h-28z"/><path id="XMLID_1081_" d="m145.359 326c0 5.522 4.477 10 10 10h48c5.523 0 10-4.478 10-10v-48c0-5.522-4.477-10-10-10h-48c-5.523 0-10 4.478-10 10zm20-38h28v28h-28z"/><path id="XMLID_1084_" d="m145.359 414c0 5.522 4.477 10 10 10h48c5.523 0 10-4.478 10-10v-48c0-5.522-4.477-10-10-10h-48c-5.523 0-10 4.478-10 10zm20-38h28v28h-28z"/><path id="XMLID_1085_" d="m388.333 380h-132.333c-5.523 0-10 4.478-10 10s4.477 10 10 10h132.333c5.523 0 10-4.478 10-10s-4.477-10-10-10z"/><path id="XMLID_1088_" d="m296.031 40h-40c-5.523 0-10 4.477-10 10v18h-18c-5.523 0-10 4.477-10 10v40c0 5.523 4.477 10 10 10h18v18c0 5.523 4.477 10 10 10h40c5.523 0 10-4.477 10-10v-18h18c5.523 0 10-4.477 10-10v-40c0-5.523-4.477-10-10-10h-18v-18c0-5.523-4.477-10-10-10zm18 48v20h-18c-5.523 0-10 4.477-10 10v18h-20v-18c0-5.523-4.477-10-10-10h-18v-20h18c5.523 0 10-4.477 10-10v-18h20v18c0 5.523 4.477 10 10 10z"/></g></g></svg>