<svg id="Capa_1" enable-background="new 0 0 512 512" height="512" viewBox="0 0 512 512" width="512" xmlns="http://www.w3.org/2000/svg"><g><path d="m181 0h-166c-8.291 0-15 6.709-15 15v91 91c0 8.291 6.709 15 15 15h166l30-30v-76-76z" fill="#ff6a4d"/><path d="m15 212h166l30-30v-76h-211v91c0 8.291 6.709 15 15 15z" fill="#e62e2e"/><path d="m135 106c0 8.401-6.599 15-15 15h-15v15c0 8.401-6.599 15-15 15s-15-6.599-15-15v-15h-15c-8.401 0-15-6.599-15-15s6.599-15 15-15h15v-15c0-8.401 6.599-15 15-15s15 6.599 15 15v15h15c8.401 0 15 6.599 15 15z" fill="#edf5ff"/><path d="m497 362h-61c-13.801 0-24.901-6-37.8-13.2-15.027-8.062-33.252-16.8-52.2-16.8-21.301 0-37.8 9-52.2 16.8-12.9 7.2-24 13.2-37.8 13.2h-15c-22.685 0-65.215 4.01-82.8 18.3-7.357 5.521-7.833 17.523 0 23.401 19.232 14.42 58.731 18.3 82.8 18.3h15 30c8.401 0 15 6.599 15 15s-6.599 15-15 15h-30-15c-30.154 0-83.167-7.011-105.07-26.84-35.427-32.076-84.691-49.66-115.2-49.66-18.3 0-23.401 11.1-19.501 20.7 9.001 22.8 87.07 70.8 183.671 114.6 2.1.599 4.2 1.199 6.301 1.199h64.799 30c26.4 0 46.5-8.101 65.7-16.199 17.401-7.202 33.9-13.801 54.3-13.801h91c8.401 0 15-6.599 15-15v-90c0-8.401-6.599-15-15-15z" fill="#fdc"/><path d="m351.7 495.801c17.401-7.202 33.9-13.801 54.3-13.801h91c8.401 0 15-6.599 15-15v-90c0-8.401-6.599-15-15-15h-61c-13.801 0-24.901-6-37.8-13.2-15.027-8.062-33.252-16.8-52.2-16.8-21.301 0-37.8 9-52.2 16.8-12.9 7.2-24 13.2-37.8 13.2v60h30c8.401 0 15 6.599 15 15s-6.599 15-15 15h-30v60h30c26.4 0 46.5-8.101 65.7-16.199z" fill="#fb9"/><path d="m286 242h-30l-15 30v15 15l15 30h30c24.814 0 45-20.186 45-45s-20.186-45-45-45z" fill="#ff6a4d"/><path d="m256 332h30c24.814 0 45-20.186 45-45h-90v15z" fill="#e62e2e"/><path d="m226 242c-24.814 0-45 20.186-45 45s20.186 45 45 45h30v-45-45z" fill="#edf5ff"/><path d="m226 332h30v-45h-75c0 24.814 20.186 45 45 45z" fill="#d5e8fe"/><path d="m235.521 18.398c-10.004-8.188-22.441-18.398-39.521-18.398h-15v106 106h15c17.08 0 29.517-10.21 39.521-18.398 7.574-6.226 14.122-11.602 20.479-11.602v-76-76c-6.357 0-12.905-5.376-20.479-11.602z" fill="#edf5ff"/><path d="m196 212c17.08 0 29.517-10.21 39.521-18.398 7.574-6.226 14.122-11.602 20.479-11.602v-76h-75v106z" fill="#d5e8fe"/><path d="m256 0c-8.291 0-15 6.709-15 15v91 91c0 8.291 6.709 15 15 15s15-6.709 15-15v-91-91c0-8.291-6.709-15-15-15z" fill="#d5e8fe"/><path d="m256 212c8.291 0 15-6.709 15-15v-91h-30v91c0 8.291 6.709 15 15 15z" fill="#b5dbff"/><path d="m135 106c0 8.401-6.599 15-15 15h-15v15c0 8.401-6.599 15-15 15s-15-6.599-15-15v-15h-15c-8.401 0-15-6.599-15-15z" fill="#d5e8fe"/></g></svg>