<?xml version="1.0" encoding="iso-8859-1"?>
<!-- Generator: Adobe Illustrator 19.0.0, SVG Export Plug-In . SVG Version: 6.00 Build 0)  -->
<svg version="1.1" id="Capa_1" xmlns="http://www.w3.org/2000/svg" xmlns:xlink="http://www.w3.org/1999/xlink" x="0px" y="0px"
	 viewBox="0 0 512 512" style="enable-background:new 0 0 512 512;" xml:space="preserve">
<g>
	<g>
		<path d="M372.455,356.282c-5.542,0-10.039,4.498-10.039,10.039s4.498,10.039,10.039,10.039c5.542,0,10.039-4.498,10.039-10.039
			C382.494,360.779,377.997,356.282,372.455,356.282z"/>
	</g>
</g>
<g>
	<g>
		<path d="M349.662,116.476C307.111,52.519,263.928,3.846,263.497,3.362C261.592,1.224,258.864,0,256,0
			c-2.864,0-5.592,1.224-7.497,3.362c-0.431,0.484-43.613,49.158-86.165,113.115c-57.718,86.755-86.984,159.05-86.984,214.877
			C75.354,430.962,156.392,512,256,512s180.646-81.038,180.646-180.646C436.646,275.527,407.38,203.232,349.662,116.476z
			 M256,491.922c-88.537,0-160.567-72.03-160.567-160.567c0-109.099,127.922-267.33,160.567-305.925
			c32.646,38.595,160.567,196.826,160.567,305.924C416.567,419.891,344.537,491.922,256,491.922z"/>
	</g>
</g>
<g>
	<g>
		<path d="M362.765,389.369c-4.526-3.203-10.791-2.131-13.994,2.393c-21.29,30.073-55.971,48.026-92.771,48.026
			c-5.545,0-10.039,4.496-10.039,10.039c0,5.544,4.495,10.039,10.039,10.039c43.304,0,84.112-21.122,109.157-56.503
			C368.362,398.838,367.29,392.573,362.765,389.369z"/>
	</g>
</g>
<g>
	<g>
		<path d="M344.606,250.98h-56.983v-56.983c0-5.544-4.495-10.039-10.039-10.039h-43.169c-5.545,0-10.039,4.496-10.039,10.039v56.983
			h-56.983c-5.545,0-10.039,4.496-10.039,10.039v43.169c0,5.544,4.495,10.039,10.039,10.039h56.983v56.983
			c0,5.544,4.495,10.039,10.039,10.039h43.169c5.545,0,10.039-4.496,10.039-10.039v-56.983h56.983
			c5.545,0,10.039-4.496,10.039-10.039V261.02C354.645,255.476,350.151,250.98,344.606,250.98z M334.567,294.149h-56.983
			c-5.545,0-10.039,4.496-10.039,10.039v56.983h-23.09v-56.983c0-5.544-4.495-10.039-10.039-10.039h-56.983v-23.09h56.983
			c5.545,0,10.039-4.496,10.039-10.039v-56.983h23.09v56.983c0,5.544,4.495,10.039,10.039,10.039h56.983V294.149z"/>
	</g>
</g>
<g>
</g>
<g>
</g>
<g>
</g>
<g>
</g>
<g>
</g>
<g>
</g>
<g>
</g>
<g>
</g>
<g>
</g>
<g>
</g>
<g>
</g>
<g>
</g>
<g>
</g>
<g>
</g>
<g>
</g>
</svg>
